<mxfile host="app.diagrams.net" agent="Mozilla/5.0 (Windows NT 10.0; Win64; x64) AppleWebKit/537.36 (KHTML, like Gecko) Chrome/129.0.0.0 Safari/537.36" version="24.7.14">
  <diagram name="Page-1" id="gJWOFDrK-HEkiAiNbb63">
    <mxGraphModel dx="1222" dy="686" grid="1" gridSize="10" guides="1" tooltips="1" connect="1" arrows="1" fold="1" page="1" pageScale="1" pageWidth="827" pageHeight="1169" math="0" shadow="0">
      <root>
        <mxCell id="0" />
        <mxCell id="1" parent="0" />
        <mxCell id="RL2euTK9x4Pr8sLBo043-2" value="S3 Bucket&lt;div&gt;&lt;br&gt;&lt;/div&gt;" style="outlineConnect=0;dashed=0;verticalLabelPosition=bottom;verticalAlign=top;align=center;html=1;shape=mxgraph.aws3.s3;fillColor=#E05243;gradientColor=none;" vertex="1" parent="1">
          <mxGeometry x="311" y="10" width="76.5" height="93" as="geometry" />
        </mxCell>
        <mxCell id="RL2euTK9x4Pr8sLBo043-22" value="" style="edgeStyle=orthogonalEdgeStyle;rounded=0;orthogonalLoop=1;jettySize=auto;html=1;" edge="1" parent="1" source="RL2euTK9x4Pr8sLBo043-3" target="RL2euTK9x4Pr8sLBo043-4">
          <mxGeometry relative="1" as="geometry" />
        </mxCell>
        <mxCell id="RL2euTK9x4Pr8sLBo043-3" value="&lt;div&gt;&lt;br&gt;&lt;/div&gt;&lt;div&gt;AWS CodeCommit&lt;/div&gt;&lt;div&gt;&lt;br&gt;&lt;/div&gt;" style="outlineConnect=0;dashed=0;verticalLabelPosition=bottom;verticalAlign=top;align=center;html=1;shape=mxgraph.aws3.codecommit;fillColor=#759C3E;gradientColor=none;" vertex="1" parent="1">
          <mxGeometry x="170" y="180" width="76.5" height="93" as="geometry" />
        </mxCell>
        <mxCell id="RL2euTK9x4Pr8sLBo043-4" value="&lt;div&gt;&lt;br&gt;&lt;/div&gt;AWS CodeBuild&lt;div&gt;&lt;br&gt;&lt;/div&gt;" style="outlineConnect=0;dashed=0;verticalLabelPosition=bottom;verticalAlign=top;align=center;html=1;shape=mxgraph.aws3.codebuild;fillColor=#759C3E;gradientColor=none;" vertex="1" parent="1">
          <mxGeometry x="310" y="180" width="76.5" height="93" as="geometry" />
        </mxCell>
        <mxCell id="RL2euTK9x4Pr8sLBo043-25" value="" style="edgeStyle=orthogonalEdgeStyle;rounded=0;orthogonalLoop=1;jettySize=auto;html=1;" edge="1" parent="1" source="RL2euTK9x4Pr8sLBo043-5">
          <mxGeometry relative="1" as="geometry">
            <mxPoint x="660" y="233" as="targetPoint" />
          </mxGeometry>
        </mxCell>
        <mxCell id="RL2euTK9x4Pr8sLBo043-5" value="&lt;div&gt;&lt;br&gt;&lt;/div&gt;&lt;div&gt;AWS CodeDeploy&lt;/div&gt;&lt;div&gt;&lt;br&gt;&lt;/div&gt;" style="outlineConnect=0;dashed=0;verticalLabelPosition=bottom;verticalAlign=top;align=center;html=1;shape=mxgraph.aws3.codedeploy;fillColor=#759C3E;gradientColor=none;" vertex="1" parent="1">
          <mxGeometry x="480" y="192" width="67.5" height="81" as="geometry" />
        </mxCell>
        <mxCell id="RL2euTK9x4Pr8sLBo043-7" value="&lt;div&gt;&lt;br&gt;&lt;/div&gt;AWS CodePipeline&lt;div&gt;&lt;br&gt;&lt;/div&gt;" style="outlineConnect=0;dashed=0;verticalLabelPosition=bottom;verticalAlign=top;align=center;html=1;shape=mxgraph.aws3.codepipeline;fillColor=#759C3E;gradientColor=none;" vertex="1" parent="1">
          <mxGeometry x="320" y="350" width="67.5" height="80" as="geometry" />
        </mxCell>
        <mxCell id="RL2euTK9x4Pr8sLBo043-9" value="&lt;div&gt;&lt;br&gt;&lt;/div&gt;&lt;div&gt;EC2 Instance&lt;/div&gt;&lt;div&gt;&lt;br&gt;&lt;/div&gt;" style="outlineConnect=0;dashed=0;verticalLabelPosition=bottom;verticalAlign=top;align=center;html=1;shape=mxgraph.aws3.ec2;fillColor=#F58534;gradientColor=none;" vertex="1" parent="1">
          <mxGeometry x="670" y="160" width="140" height="158" as="geometry" />
        </mxCell>
        <mxCell id="RL2euTK9x4Pr8sLBo043-12" value="" style="edgeStyle=orthogonalEdgeStyle;html=1;endArrow=block;elbow=vertical;startArrow=none;endFill=1;strokeColor=#545B64;rounded=0;" edge="1" parent="1">
          <mxGeometry width="100" relative="1" as="geometry">
            <mxPoint x="350" y="170" as="sourcePoint" />
            <mxPoint x="350" y="130" as="targetPoint" />
            <Array as="points">
              <mxPoint x="350" y="160" />
              <mxPoint x="350" y="160" />
            </Array>
          </mxGeometry>
        </mxCell>
        <mxCell id="RL2euTK9x4Pr8sLBo043-14" value="" style="edgeStyle=orthogonalEdgeStyle;html=1;endArrow=block;elbow=vertical;startArrow=none;endFill=1;strokeColor=#545B64;rounded=0;" edge="1" parent="1">
          <mxGeometry width="100" relative="1" as="geometry">
            <mxPoint x="387.5" y="46" as="sourcePoint" />
            <mxPoint x="510" y="180" as="targetPoint" />
          </mxGeometry>
        </mxCell>
        <mxCell id="RL2euTK9x4Pr8sLBo043-15" value="&lt;div&gt;&lt;br&gt;&lt;/div&gt;&lt;div&gt;Artifacts&lt;br&gt;&lt;/div&gt;&lt;div&gt;&lt;br&gt;&lt;/div&gt;" style="image;sketch=0;aspect=fixed;html=1;points=[];align=center;fontSize=12;image=img/lib/mscae/Azure_Artifacts.svg;" vertex="1" parent="1">
          <mxGeometry x="430" y="53" width="50" height="50" as="geometry" />
        </mxCell>
        <mxCell id="RL2euTK9x4Pr8sLBo043-21" value="" style="edgeStyle=orthogonalEdgeStyle;rounded=0;orthogonalLoop=1;jettySize=auto;html=1;" edge="1" parent="1" source="RL2euTK9x4Pr8sLBo043-18" target="RL2euTK9x4Pr8sLBo043-3">
          <mxGeometry relative="1" as="geometry" />
        </mxCell>
        <mxCell id="RL2euTK9x4Pr8sLBo043-18" value="&lt;div&gt;&lt;br&gt;&lt;/div&gt;&lt;div&gt;Code&lt;/div&gt;&lt;div&gt;&lt;br&gt;&lt;/div&gt;" style="image;aspect=fixed;html=1;points=[];align=center;fontSize=12;image=img/lib/azure2/general/Code.svg;" vertex="1" parent="1">
          <mxGeometry x="40" y="200.5" width="64" height="52" as="geometry" />
        </mxCell>
        <mxCell id="RL2euTK9x4Pr8sLBo043-28" value="" style="rounded=1;arcSize=10;dashed=0;fillColor=none;gradientColor=none;strokeWidth=2;" vertex="1" parent="1">
          <mxGeometry x="150" y="150" width="440" height="320" as="geometry" />
        </mxCell>
        <mxCell id="RL2euTK9x4Pr8sLBo043-30" value="CodeDeploy&lt;div&gt;&amp;nbsp;Agent&lt;div&gt;&lt;br&gt;&lt;/div&gt;&lt;/div&gt;" style="outlineConnect=0;dashed=0;verticalLabelPosition=bottom;verticalAlign=top;align=center;html=1;shape=mxgraph.aws3.user;fillColor=#D2D3D3;gradientColor=none;" vertex="1" parent="1">
          <mxGeometry x="760" y="217" width="30" height="31" as="geometry" />
        </mxCell>
        <mxCell id="RL2euTK9x4Pr8sLBo043-31" value="&lt;div&gt;&lt;span style=&quot;background-color: initial;&quot;&gt;CodeBuild Role&lt;/span&gt;&lt;br&gt;&lt;/div&gt;&lt;div&gt;&lt;br&gt;&lt;/div&gt;" style="sketch=0;outlineConnect=0;fontColor=#232F3E;gradientColor=none;fillColor=#DD344C;strokeColor=none;dashed=0;verticalLabelPosition=bottom;verticalAlign=top;align=center;html=1;fontSize=12;fontStyle=0;aspect=fixed;pointerEvents=1;shape=mxgraph.aws4.identity_access_management_iam_roles_anywhere;" vertex="1" parent="1">
          <mxGeometry x="280" y="233" width="40" height="40" as="geometry" />
        </mxCell>
        <mxCell id="RL2euTK9x4Pr8sLBo043-32" value="&lt;div&gt;&lt;span style=&quot;background-color: initial;&quot;&gt;CodeDeploy&lt;/span&gt;&lt;span style=&quot;background-color: initial;&quot;&gt;&amp;nbsp;Role&lt;/span&gt;&lt;/div&gt;&lt;div&gt;&lt;br&gt;&lt;/div&gt;" style="sketch=0;outlineConnect=0;fontColor=#232F3E;gradientColor=none;fillColor=#DD344C;strokeColor=none;dashed=0;verticalLabelPosition=bottom;verticalAlign=top;align=center;html=1;fontSize=12;fontStyle=0;aspect=fixed;pointerEvents=1;shape=mxgraph.aws4.identity_access_management_iam_roles_anywhere;" vertex="1" parent="1">
          <mxGeometry x="440" y="233" width="40" height="40" as="geometry" />
        </mxCell>
        <mxCell id="RL2euTK9x4Pr8sLBo043-33" value="&lt;div&gt;&lt;span style=&quot;background-color: initial;&quot;&gt;CodeDeploy-EC2 Role&lt;/span&gt;&lt;/div&gt;&lt;div&gt;&lt;br&gt;&lt;/div&gt;" style="sketch=0;outlineConnect=0;fontColor=#232F3E;gradientColor=none;fillColor=#DD344C;strokeColor=none;dashed=0;verticalLabelPosition=bottom;verticalAlign=top;align=center;html=1;fontSize=12;fontStyle=0;aspect=fixed;pointerEvents=1;shape=mxgraph.aws4.identity_access_management_iam_roles_anywhere;" vertex="1" parent="1">
          <mxGeometry x="640" y="273" width="40" height="40" as="geometry" />
        </mxCell>
      </root>
    </mxGraphModel>
  </diagram>
</mxfile>
